# xmcd
#
# Track frame offsets: 
#        150
#        17925
#        35761
#        63431
#        91313
#
# Disc length: 4440 seconds
#
# Revision: 0
# Processed by: cddbd v1.5.1PL2 Copyright (c) Steve Scherf et al.
# Submitted via: ExactAudioCopy v0.95b3
#
DISCID=3d115605
DTITLE=Mattafix - Big City Life
DYEAR=2005
DGENRE=Reggae
TTITLE0=Big City Life
TTITLE1=Big City Life (Cutfather and Joe)
TTITLE2=Big City Life (Solid Groove)
TTITLE3=Big City Life (Mattafix Remix)
TTITLE4=Copy Controlled
EXTD=
EXTT0=
EXTT1=
EXTT2=
EXTT3=
EXTT4=
PLAYORDER=
